<?xml version="1.0" encoding="utf-8"?>
<svg version="1.1" id="Layer_1" xmlns="http://www.w3.org/2000/svg" xmlns:xlink="http://www.w3.org/1999/xlink" x="0px" y="0px" viewBox="0 0 132 132" style="enable-background:new 0 0 132 132;" xml:space="preserve">
<style type="text/css">.st0{fill:#03A603;} .st1{fill:#F0ECDC;}</style>
<g transform="translate(80.000000, 77.000000)">
	<path class="st0" d="M52-19v-42H10c0-8.8-7.2-16-16-16s-16,7.2-16,16h-42v42c-8.8,0-16,7.2-16,16s7.2,16,16,16v42h42 c0-8.8,7.2-16,16-16s16,7.2,16,16h42V13c-8.8,0-16-7.2-16-16S43.2-19,52-19z"/>
	<rect x="-40" y="-35" class="st1" width="60" height="8"/>
	<rect x="-40" y="-14" class="st1" width="60" height="8"/>
	<polygon class="st1" points="-40,7 -10,7 -10,15 -40,15"/>
</g>
</svg>
